<?xml version="1.0" encoding="iso-8859-1"?>
<!-- Uploaded to: SVG Repo, www.svgrepo.com, Generator: SVG Repo Mixer Tools -->
<svg version="1.1" id="Layer_1" xmlns="http://www.w3.org/2000/svg" xmlns:xlink="http://www.w3.org/1999/xlink" 
	 viewBox="0 0 512 512" xml:space="preserve">
<path style="fill:#333333;" d="M368,512H144c-17.6,0-32-14.4-32-32V32c0-17.6,14.4-32,32-32h224c17.6,0,32,14.4,32,32v448
	C400,497.6,385.6,512,368,512z"/>
<rect x="135.456" y="50.672" style="fill:#0BA4E0;" width="241.28" height="372"/>
<g>
	<path style="fill:#D6D6D6;" d="M256.176,489.456c-12.496,0-22.656-10.176-22.656-22.672s10.16-22.672,22.656-22.672
		s22.672,10.176,22.672,22.672S268.672,489.456,256.176,489.456z M256.176,452.112c-8.08,0-14.656,6.576-14.656,14.672
		s6.576,14.672,14.656,14.672c8.096,0,14.672-6.576,14.672-14.672S264.272,452.112,256.176,452.112z"/>
	<circle style="fill:#D6D6D6;" cx="256.16" cy="25.328" r="7.792"/>
	<circle style="fill:#D6D6D6;" cx="312.816" cy="25.328" r="7.792"/>
	<circle style="fill:#D6D6D6;" cx="337.44" cy="25.328" r="7.792"/>
</g>
<g>
	<path style="fill:#FFFFFF;" d="M289.536,197.44c-35.744-28.4-65.52-1.376-66.784-0.208l-5.472-5.84
		c0.336-0.336,36-32.992,77.216-0.208L289.536,197.44z"/>
	<path style="fill:#FFFFFF;" d="M307.648,172.816c-55.152-43.792-100.816-2-102.736-0.208l-5.472-5.84
		c0.512-0.464,52.688-48.288,113.168-0.208L307.648,172.816z"/>
	<path style="fill:#FFFFFF;" d="M327.792,148.464c-76.432-60.752-140.176-2.72-142.848-0.208l-5.472-5.84
		c0.688-0.672,71.328-65.392,153.28-0.208L327.792,148.464z"/>
</g>
<rect x="248" y="248.32" style="fill:#333333;" width="16" height="108"/>
<circle style="fill:#FFFFFF;" cx="256" cy="236.48" r="18.672"/>
</svg>